# Blender v2.78 (sub 0) OBJ File: 'LightBlueGem.blend'
# www.blender.org
mtllib LightBlueGem.mtl
o Light_Blue_Gem
v 0.000000 0.000000 -0.800000
v 0.000000 0.000000 0.350000
v -0.714296 -0.000000 -0.240567
v -0.923880 0.382683 0.000000
v -0.736916 0.000000 0.236494
v -0.554328 0.229610 0.350000
v -0.505084 0.505084 -0.240567
v -0.382683 0.923880 0.000000
v -0.521078 0.521078 0.236494
v -0.229610 0.554328 0.350000
v 0.000000 0.714296 -0.240567
v 0.382683 0.923880 0.000000
v -0.000000 0.736916 0.236494
v 0.229610 0.554328 0.350000
v 0.505084 0.505084 -0.240567
v 0.923880 0.382683 0.000000
v 0.521078 0.521078 0.236494
v 0.554328 0.229610 0.350000
v 0.714296 -0.000000 -0.240567
v 0.923880 -0.382683 0.000000
v 0.736916 0.000000 0.236494
v 0.554328 -0.229610 0.350000
v 0.505084 -0.505084 -0.240567
v 0.382683 -0.923880 0.000000
v 0.521078 -0.521078 0.236494
v 0.229610 -0.554328 0.350000
v 0.000000 -0.714296 -0.240567
v -0.382683 -0.923880 0.000000
v -0.000000 -0.736916 0.236494
v -0.229610 -0.554328 0.350000
v -0.505084 -0.505084 -0.240567
v -0.923880 -0.382683 0.000000
v -0.521078 -0.521078 0.236494
v -0.554328 -0.229610 0.350000
vt 0.6621 0.6655
vt 0.6601 0.4277
vt 0.7607 0.3436
vt 0.4471 0.7672
vt 0.4152 0.8944
vt 0.3285 0.7112
vt 0.4969 0.6721
vt 0.2973 0.6987
vt 0.3867 0.6076
vt 0.1520 0.2831
vt 0.0939 0.3415
vt 0.0191 0.2381
vt 0.3193 0.5601
vt 0.4393 0.5441
vt 0.7970 0.4696
vt 0.5581 0.3453
vt 0.5201 0.0415
vt 0.6623 0.1840
vt 0.5357 0.1682
vt 0.1414 0.2013
vt 0.5388 0.2506
vt 0.4533 0.1649
vt 0.9276 0.4584
vt 0.3230 0.0003
vt 0.4055 0.0977
vt 0.1356 0.0738
vt 0.2221 0.1843
vt 0.3348 0.1401
vt 0.8850 0.5824
vt 0.9984 0.6483
vt 0.2580 0.1101
vt 0.8923 0.7254
vt 0.9473 0.8444
vt 0.8162 0.8467
vt 0.7930 0.9757
vt 0.0117 0.4393
vt 0.1476 0.4041
vt 0.6844 0.9023
vt 0.5913 0.9947
vt 0.1158 0.6116
vt 0.1310 0.4849
vt 0.2102 0.5077
vt 0.5444 0.8722
vt 0.2405 0.5844
vt 0.2884 0.1717
vt 0.3676 0.3559
vt 0.1814 0.2817
vt 0.4418 0.1696
vt 0.5518 0.2767
vt 0.5539 0.4301
vt 0.4469 0.5400
vt 0.2934 0.5421
vt 0.1835 0.4351
vn 0.1553 0.6091 -0.7777
vn -0.5332 0.5332 -0.6569
vn -0.5547 0.5547 0.6202
vn 0.1456 -0.6479 0.7477
vn -0.3733 0.3733 0.8493
vn 0.3209 0.5405 -0.7777
vn 0.0000 0.7540 -0.6569
vn 0.0000 0.7845 0.6202
vn 0.3552 -0.5610 0.7477
vn 0.0000 0.5280 0.8493
vn 0.5405 0.3209 -0.7777
vn 0.5332 0.5332 -0.6569
vn 0.5547 0.5547 0.6202
vn 0.5610 -0.3552 0.7477
vn 0.3733 0.3733 0.8493
vn 0.6091 0.1553 -0.7777
vn 0.7540 0.0000 -0.6569
vn 0.7845 0.0000 0.6202
vn 0.6479 -0.1456 0.7477
vn 0.5280 0.0000 0.8493
vn 0.6091 -0.1553 -0.7777
vn 0.5332 -0.5332 -0.6569
vn 0.5547 -0.5547 0.6202
vn 0.6479 0.1456 0.7477
vn 0.3733 -0.3733 0.8493
vn 0.3209 -0.5405 -0.7777
vn 0.0000 -0.7540 -0.6569
vn 0.0000 -0.7845 0.6202
vn 0.5610 0.3552 0.7477
vn 0.0000 -0.5280 0.8493
vn 0.1553 -0.6091 -0.7777
vn -0.5332 -0.5332 -0.6569
vn -0.5547 -0.5547 0.6202
vn 0.3552 0.5610 0.7477
vn -0.3733 -0.3733 0.8493
vn 0.5405 -0.3209 -0.7777
vn -0.7540 0.0000 -0.6569
vn -0.7845 0.0000 0.6202
vn 0.1456 0.6479 0.7477
vn -0.5280 0.0000 0.8493
vn 0.0000 0.0000 -1.0000
vn -0.1456 -0.6479 0.7477
vn -0.3552 -0.5610 0.7477
vn -0.5610 -0.3552 0.7477
vn -0.6479 -0.1456 0.7477
vn -0.6479 0.1456 0.7477
vn -0.5610 0.3552 0.7477
vn -0.3552 0.5610 0.7477
vn -0.1456 0.6479 0.7477
vn -0.1553 0.6091 -0.7777
vn -0.3209 0.5405 -0.7777
vn -0.5405 0.3209 -0.7777
vn -0.6091 0.1553 -0.7777
vn -0.5405 -0.3209 -0.7777
vn -0.6091 -0.1553 -0.7777
vn -0.3209 -0.5405 -0.7777
vn -0.1553 -0.6091 -0.7777
usemtl Light_Blue
s off
f 1/1/1 11/2/1 12/3/1
f 7/4/2 4/5/2 8/6/2
f 8/7/3 4/8/3 9/9/3
f 26/10/4 29/11/4 24/12/4
f 9/9/5 6/13/5 10/14/5
f 15/15/6 1/1/6 12/3/6
f 11/2/7 8/16/7 12/3/7
f 12/17/8 8/18/8 13/19/8
f 25/20/9 26/10/9 24/12/9
f 13/19/10 10/21/10 14/22/10
f 15/15/11 16/23/11 1/1/11
f 15/15/12 12/3/12 16/23/12
f 16/24/13 12/17/13 17/25/13
f 25/20/14 20/26/14 22/27/14
f 17/25/15 14/22/15 18/28/15
f 16/23/16 19/29/16 1/1/16
f 19/29/17 16/23/17 20/30/17
f 20/26/18 16/24/18 21/31/18
f 21/31/19 22/27/19 20/26/19
f 21/31/20 18/28/20 22/27/20
f 19/29/21 20/30/21 1/1/21
f 23/32/22 20/30/22 24/33/22
f 24/12/23 20/26/23 25/20/23
f 21/31/24 16/24/24 18/28/24
f 25/20/25 22/27/25 26/10/25
f 23/32/26 24/33/26 1/1/26
f 27/34/27 24/33/27 28/35/27
f 28/36/28 24/12/28 29/11/28
f 17/25/29 18/28/29 16/24/29
f 29/11/30 26/10/30 30/37/30
f 24/33/31 27/34/31 1/1/31
f 31/38/32 28/35/32 32/39/32
f 32/40/33 28/36/33 33/41/33
f 12/17/34 14/22/34 17/25/34
f 33/41/35 30/37/35 34/42/35
f 23/32/36 1/1/36 20/30/36
f 3/43/37 32/39/37 4/5/37
f 4/8/38 32/40/38 5/44/38
f 13/19/39 14/22/39 12/17/39
f 5/44/40 34/42/40 6/13/40
f 6/45/41 2/46/41 34/47/41
f 2/46/41 6/45/41 10/48/41
f 2/46/41 10/48/41 14/49/41
f 2/46/41 14/49/41 18/50/41
f 2/46/41 18/50/41 22/51/41
f 2/46/41 22/51/41 26/52/41
f 2/46/41 26/52/41 30/53/41
f 2/46/41 30/53/41 34/47/41
f 29/11/42 30/37/42 28/36/42
f 33/41/43 28/36/43 30/37/43
f 33/41/44 34/42/44 32/40/44
f 32/40/45 34/42/45 5/44/45
f 5/44/46 6/13/46 4/8/46
f 6/13/47 9/9/47 4/8/47
f 9/9/48 10/14/48 8/7/48
f 13/19/49 8/18/49 10/21/49
f 11/2/50 1/1/50 8/16/50
f 7/4/51 8/6/51 1/1/51
f 7/4/52 1/1/52 4/5/52
f 3/43/53 4/5/53 1/1/53
f 31/38/54 32/39/54 1/1/54
f 3/43/55 1/1/55 32/39/55
f 31/38/56 1/1/56 28/35/56
f 27/34/57 28/35/57 1/1/57
